<?xml version="1.0" encoding="UTF-8" ?>
<!DOCTYPE svg PUBLIC "-//W3C//DTD SVG 1.1//EN" "http://www.w3.org/Graphics/SVG/1.1/DTD/svg11.dtd">
<svg width="500pt" height="510pt" viewBox="0 0 500 510" version="1.1" xmlns="http://www.w3.org/2000/svg">
<g id="#231f20ff">
<path fill="#231f20" opacity="1.00" d=" M 239.62 0.00 L 255.42 0.00 C 272.10 1.54 288.07 7.84 301.99 17.04 C 318.83 28.13 333.17 42.87 344.34 59.63 C 351.17 70.29 357.18 81.82 359.54 94.36 C 360.75 99.75 359.74 105.21 359.30 110.61 C 372.29 114.37 385.25 118.52 397.29 124.77 C 410.25 131.25 422.95 139.80 430.64 152.40 C 433.72 157.13 434.66 162.78 435.81 168.20 C 456.66 261.00 477.46 353.81 498.30 446.61 C 498.79 448.62 499.43 450.60 500.00 452.61 L 500.00 462.65 C 497.82 469.01 492.03 473.39 485.44 474.32 C 468.31 476.91 451.15 479.46 434.00 481.98 C 429.35 482.75 424.24 483.49 419.91 481.11 C 413.26 477.86 409.89 470.66 408.25 463.80 C 394.59 407.49 380.99 351.17 367.27 294.88 C 367.57 307.90 366.97 320.95 367.91 333.95 C 368.49 349.29 368.16 364.63 368.67 379.97 C 369.37 409.97 369.48 439.99 370.32 469.99 C 370.04 480.45 371.99 491.90 366.29 501.33 C 363.45 506.41 357.74 508.57 352.43 510.00 L 147.57 510.00 C 142.97 508.63 137.94 507.12 134.93 503.09 C 130.69 497.72 129.66 490.62 129.61 483.97 C 129.53 459.64 130.78 435.32 130.67 410.99 C 130.98 391.32 131.78 371.66 131.67 351.99 C 131.87 343.00 131.91 333.99 132.54 325.02 C 132.68 314.98 132.58 304.94 132.73 294.90 C 119.34 349.84 106.02 404.81 92.76 459.79 C 91.16 466.83 89.09 474.48 83.12 479.14 C 78.40 483.24 71.70 482.63 65.93 481.98 C 49.36 479.53 32.80 477.01 16.22 474.61 C 12.43 473.92 8.62 472.76 5.46 470.49 C 2.85 468.53 1.36 465.52 0.00 462.65 L 0.00 452.61 C 2.36 445.06 3.65 437.24 5.55 429.57 C 25.69 339.72 45.95 249.90 66.11 160.05 C 68.76 150.11 76.43 142.51 84.19 136.20 C 97.32 126.15 112.73 119.48 128.36 114.34 C 133.13 112.68 138.11 111.73 142.80 109.83 C 142.24 104.11 141.38 98.28 142.69 92.59 C 145.87 77.54 153.57 63.84 162.52 51.49 C 176.81 32.41 195.22 15.73 217.43 6.49 C 224.54 3.43 232.13 1.82 239.62 0.00 M 241.44 16.54 C 224.59 18.87 209.17 27.45 196.47 38.50 C 181.65 51.78 168.86 67.82 161.41 86.40 C 159.29 92.09 157.20 98.31 158.64 104.41 C 159.16 106.23 161.31 106.26 162.77 106.86 C 162.99 96.72 166.18 86.87 171.07 78.04 C 182.24 57.87 200.29 41.43 221.71 32.77 C 235.98 27.09 251.91 25.74 266.93 29.00 C 303.80 35.93 335.24 68.82 337.48 106.76 C 339.39 106.57 342.04 107.24 343.27 105.32 C 344.45 102.56 343.87 99.43 343.42 96.57 C 341.31 86.62 336.39 77.54 330.97 69.03 C 321.12 54.24 308.67 41.10 293.96 31.08 C 278.69 20.75 260.03 14.19 241.44 16.54 M 203.61 52.64 C 188.78 64.33 176.39 80.25 171.84 98.83 C 171.06 104.47 170.16 111.17 174.02 115.93 C 180.71 118.64 188.06 119.37 195.09 120.91 C 238.93 128.81 284.35 127.47 327.76 117.64 C 329.99 110.17 329.12 102.08 327.33 94.60 C 318.59 61.78 287.00 36.48 252.95 35.63 C 235.08 34.73 217.52 41.70 203.61 52.64 M 146.79 125.79 C 133.78 129.31 120.98 133.79 108.94 139.87 C 99.67 144.81 90.34 150.53 84.24 159.31 C 81.18 163.45 80.84 168.76 79.63 173.60 C 59.49 263.47 39.27 353.32 19.14 443.19 C 18.16 448.08 16.67 452.87 16.15 457.84 C 22.88 459.96 30.05 459.83 36.95 461.21 C 48.31 462.88 59.67 464.57 71.03 466.23 C 73.96 466.95 74.93 463.75 75.55 461.59 C 94.54 383.26 113.53 304.92 132.51 226.58 C 133.65 222.69 133.48 217.78 137.10 215.16 C 141.78 211.36 150.29 214.56 150.16 220.98 C 150.02 234.66 149.48 248.34 149.64 262.02 C 149.17 282.02 148.55 302.02 148.63 322.04 C 147.58 354.68 147.73 387.35 146.69 420.00 C 146.76 440.67 146.07 461.33 145.64 482.00 C 145.68 485.62 145.72 489.40 147.31 492.74 C 150.81 493.61 154.43 493.30 158.00 493.33 C 221.35 493.29 284.68 493.29 348.03 493.34 C 349.60 493.34 351.15 493.08 352.69 492.75 C 354.79 488.14 354.32 482.93 354.29 478.01 C 353.24 445.69 353.41 413.36 352.37 381.04 C 352.46 360.69 351.76 340.34 351.35 320.00 C 351.47 299.66 350.63 279.33 350.35 259.00 C 350.51 246.32 349.92 233.66 349.84 220.99 C 349.81 216.15 354.85 212.72 359.38 213.52 C 362.35 214.00 364.91 216.33 365.75 219.20 C 385.21 300.02 404.90 380.80 424.45 461.60 C 425.06 463.73 426.04 466.97 428.96 466.22 C 442.13 464.55 455.21 462.07 468.40 460.49 C 473.55 459.70 478.81 459.37 483.81 457.82 C 483.05 451.19 481.02 444.77 479.74 438.23 C 459.37 347.28 438.89 256.35 418.55 165.39 C 417.03 159.44 412.50 154.89 408.07 150.92 C 398.37 142.86 386.83 137.36 375.12 132.89 C 365.15 128.99 354.82 126.07 344.39 123.69 C 339.69 122.40 335.12 124.62 330.58 125.54 C 312.36 129.61 293.83 132.52 275.16 133.43 C 281.86 144.29 283.91 157.90 280.12 170.14 C 278.38 175.51 276.43 181.91 279.84 187.05 C 282.37 191.32 287.50 192.32 291.67 194.25 C 294.85 196.27 292.79 201.92 289.04 201.59 C 281.38 200.33 273.85 195.49 270.98 188.04 C 268.68 182.12 269.60 175.49 271.62 169.62 C 275.36 159.31 274.37 147.04 267.99 137.97 C 266.01 135.08 262.41 133.98 259.04 134.27 C 249.02 134.53 239.00 134.13 229.02 133.33 C 227.11 133.42 224.74 132.71 223.29 134.33 C 219.67 137.62 216.41 142.44 217.48 147.57 C 218.69 152.89 223.02 156.60 226.66 160.35 C 231.52 165.29 234.87 171.67 236.36 178.43 C 237.43 185.82 236.08 193.25 235.42 200.61 C 235.34 204.76 228.68 205.38 227.49 201.61 C 226.92 198.67 227.37 195.65 227.76 192.72 C 228.84 186.24 228.98 179.20 225.78 173.26 C 222.07 165.32 213.32 161.04 210.39 152.61 C 207.60 145.70 209.65 138.03 213.72 132.10 C 199.34 130.26 184.99 127.89 171.01 123.99 C 163.02 121.40 154.63 123.87 146.79 125.79 Z" />
<path fill="#231f20" opacity="1.00" d=" M 190.40 354.47 C 193.80 353.32 197.47 353.74 201.00 353.66 C 236.67 353.73 272.34 353.63 308.01 353.71 C 312.52 353.33 317.41 356.31 317.59 361.15 C 317.83 394.35 324.49 428.07 340.49 457.39 C 342.96 462.50 338.62 469.00 332.93 468.63 C 278.95 468.67 224.96 468.59 170.97 468.66 C 166.31 469.07 161.76 464.80 162.25 460.06 C 162.61 456.48 165.07 453.60 166.50 450.40 C 177.10 428.43 182.92 404.31 184.95 380.06 C 185.57 373.70 185.34 367.31 185.84 360.96 C 185.90 358.12 187.97 355.71 190.40 354.47 M 194.12 362.08 C 193.38 376.11 193.09 390.27 190.10 404.06 C 186.48 423.54 180.16 442.51 171.03 460.10 C 177.68 460.58 184.34 460.20 191.00 460.32 C 224.33 460.31 257.66 460.32 291.00 460.32 C 304.70 460.15 318.43 460.64 332.13 460.08 C 328.98 452.56 324.97 445.39 322.40 437.62 C 313.79 413.53 309.12 387.88 309.70 362.27 C 304.48 361.73 299.23 362.08 294.00 362.00 C 260.71 362.05 227.41 361.89 194.12 362.08 Z" />
</g>
</svg>
