<?xml version="1.0" encoding="UTF-8" ?>
<!DOCTYPE svg PUBLIC "-//W3C//DTD SVG 1.1//EN" "http://www.w3.org/Graphics/SVG/1.1/DTD/svg11.dtd">
<svg width="500pt" height="781pt" viewBox="0 0 500 781" version="1.1" xmlns="http://www.w3.org/2000/svg">
<g id="#231f20ff">
<path fill="#231f20" opacity="1.00" d=" M 138.93 0.00 L 363.82 0.00 C 388.92 0.60 414.05 0.73 439.10 2.61 C 448.38 3.37 457.72 4.17 466.79 6.39 C 470.82 7.50 475.06 8.87 478.04 11.96 C 480.83 15.53 481.57 20.16 482.46 24.48 C 484.96 39.21 485.88 54.14 486.90 69.02 C 489.84 117.61 491.09 166.28 492.46 214.93 C 496.47 375.65 498.35 536.40 500.00 697.14 L 500.00 766.02 C 499.92 771.71 495.66 776.25 490.15 777.12 C 472.68 780.97 454.63 780.16 436.87 781.00 L 366.17 781.00 C 350.10 780.46 334.00 780.41 317.98 778.94 C 311.86 778.18 305.40 777.98 299.82 775.11 C 295.00 772.36 294.61 766.27 293.46 761.44 C 289.10 737.60 286.32 713.51 283.21 689.48 C 269.97 581.45 258.59 473.20 246.74 365.01 C 237.12 465.32 227.28 565.61 217.36 665.90 C 214.04 698.79 210.89 731.70 207.23 764.55 C 206.79 768.66 205.53 773.48 201.37 775.30 C 195.45 777.90 188.86 778.18 182.52 778.80 C 168.74 779.79 154.91 779.96 141.10 780.10 C 114.91 779.94 88.71 779.92 62.52 780.11 C 47.86 779.88 33.15 779.81 18.55 778.23 C 14.32 777.60 9.83 777.16 6.12 774.82 C 3.17 772.87 1.78 769.34 1.63 765.92 C 0.28 747.60 0.55 729.21 0.00 710.86 L 0.00 566.84 C 0.65 552.59 -0.12 538.32 0.44 524.08 C 0.71 469.68 1.34 415.29 2.08 360.90 C 3.32 285.55 4.70 210.19 7.90 134.89 C 9.48 102.24 10.83 69.53 14.90 37.08 C 16.16 29.54 16.75 21.54 20.69 14.80 C 23.49 9.86 29.18 7.83 34.41 6.61 C 47.11 3.73 60.16 2.92 73.12 2.06 C 95.03 0.72 116.99 0.54 138.93 0.00 M 112.25 26.27 C 112.25 35.18 112.25 44.09 112.25 52.99 C 153.50 53.01 194.74 53.00 235.99 53.00 C 236.10 43.92 235.56 34.84 235.74 25.76 C 194.58 25.26 153.41 25.50 112.25 26.27 M 248.76 25.76 C 248.58 34.84 249.00 43.92 249.00 53.00 C 290.83 53.00 332.67 53.00 374.50 53.00 C 374.50 44.01 374.50 35.03 374.50 26.04 C 362.36 25.47 350.20 26.01 338.06 25.59 C 308.29 25.22 278.53 25.80 248.76 25.76 M 41.85 31.09 C 40.23 38.29 39.57 45.66 38.82 52.99 C 58.96 53.00 79.10 53.00 99.25 53.00 C 99.25 44.24 99.25 35.48 99.24 26.73 C 80.08 27.35 60.77 27.75 41.85 31.09 M 387.50 26.24 C 387.50 35.16 387.50 44.08 387.50 53.00 C 411.76 53.00 436.02 53.00 460.28 52.99 C 459.63 45.41 459.14 37.79 457.96 30.27 C 434.65 26.88 411.00 26.85 387.50 26.24 M 33.71 139.82 C 43.71 139.77 53.45 136.75 62.38 132.39 C 75.98 125.68 88.15 116.43 99.50 106.45 C 113.44 94.03 126.28 80.40 138.17 66.00 C 104.69 65.99 71.22 66.01 37.75 65.99 C 35.80 90.56 34.80 115.20 33.71 139.82 M 99.47 123.47 C 87.91 132.73 75.41 141.03 61.68 146.72 C 52.69 150.33 43.07 152.90 33.31 152.50 C 29.91 238.64 28.50 324.83 27.09 411.00 C 26.22 474.34 25.58 537.68 25.25 601.03 C 25.12 619.66 25.52 638.30 25.03 656.93 C 25.56 688.97 24.82 721.04 26.04 753.07 C 59.96 755.11 93.96 754.34 127.93 754.51 C 146.20 754.16 164.48 753.93 182.73 752.90 C 187.67 706.12 192.14 659.29 196.80 612.48 C 208.91 488.92 220.95 365.36 232.87 241.79 C 233.33 237.99 233.12 233.75 235.53 230.53 C 236.62 228.80 238.66 227.39 238.27 225.09 C 237.55 172.06 236.81 119.04 236.25 66.01 C 209.09 66.00 181.93 65.99 154.77 66.01 C 138.60 87.16 120.20 106.72 99.47 123.47 M 249.25 66.01 C 249.79 119.19 250.52 172.36 251.27 225.54 C 255.59 227.79 258.88 232.03 259.07 237.01 C 272.44 363.10 286.01 489.16 300.36 615.14 C 305.76 661.19 310.68 707.30 317.35 753.19 C 335.54 754.57 353.78 754.87 372.01 755.26 C 385.99 755.06 399.96 755.94 413.94 755.29 C 434.21 755.21 454.51 754.95 474.75 753.49 C 474.76 643.30 472.85 533.15 471.20 422.99 C 469.45 332.82 467.92 242.62 464.73 152.48 C 449.89 153.48 435.44 148.38 422.53 141.47 C 406.75 132.91 392.67 121.56 379.58 109.35 C 365.56 95.88 352.21 81.62 340.59 66.01 C 310.14 66.00 279.69 66.00 249.25 66.01 M 357.15 66.02 C 374.68 87.03 393.89 107.00 416.43 122.69 C 430.55 132.14 446.79 140.77 464.30 139.61 C 463.58 115.06 462.48 90.52 461.11 66.00 C 426.45 66.01 391.80 65.98 357.15 66.02 Z" />
<path fill="#231f20" opacity="1.00" d=" M 261.33 29.36 C 268.28 25.92 277.19 32.39 275.92 40.07 C 275.40 47.65 265.61 52.03 259.58 47.41 C 253.08 43.22 254.15 32.24 261.33 29.36 Z" />
</g>
<g id="#08070840">
<path fill="#080708" opacity="0.25" d=" M 62.52 780.11 C 88.71 779.92 114.91 779.94 141.10 780.10 L 142.68 781.00 L 60.61 781.00 L 62.52 780.11 Z" />
</g>
</svg>
