<?xml version="1.0" encoding="UTF-8" ?>
<!DOCTYPE svg PUBLIC "-//W3C//DTD SVG 1.1//EN" "http://www.w3.org/Graphics/SVG/1.1/DTD/svg11.dtd">
<svg width="500pt" height="467pt" viewBox="0 0 500 467" version="1.1" xmlns="http://www.w3.org/2000/svg">
<g id="#231f20ff">
<path fill="#231f20" opacity="1.00" d=" M 207.55 0.00 L 212.46 0.00 C 224.26 1.25 236.14 1.47 248.00 1.38 C 259.21 1.35 270.49 1.69 281.60 0.00 L 288.75 0.00 C 295.54 6.63 302.33 13.29 308.47 20.55 C 309.48 21.97 311.35 21.93 312.92 22.04 C 329.19 22.34 345.70 20.77 361.76 24.23 C 390.69 30.15 416.81 46.79 436.16 68.88 C 452.51 85.51 469.13 101.88 485.58 118.42 C 490.59 123.54 496.17 128.23 500.00 134.37 L 500.00 140.63 C 497.15 145.41 493.05 149.23 488.89 152.85 C 471.81 168.11 454.84 183.50 437.77 198.76 C 434.38 201.69 431.46 205.26 427.50 207.45 C 423.34 209.55 418.32 207.96 415.13 204.85 C 404.02 194.63 392.67 184.67 381.51 174.51 C 379.07 172.22 376.52 170.05 373.87 168.01 C 373.47 177.01 374.28 186.00 374.29 195.00 C 374.32 214.02 375.35 233.01 375.39 252.03 C 376.86 313.03 377.96 374.03 379.38 435.03 C 379.40 443.45 380.12 452.77 375.04 460.03 C 371.76 464.91 365.57 466.41 360.01 466.33 C 286.00 466.30 211.99 466.29 137.99 466.33 C 132.42 466.43 126.25 464.90 122.97 460.02 C 117.32 451.85 118.76 441.38 118.68 432.01 C 119.48 404.68 119.74 377.35 120.57 350.02 C 120.62 329.34 121.68 308.68 121.74 288.00 C 122.57 261.02 122.79 234.03 123.60 207.04 C 123.43 194.03 124.50 181.03 124.12 168.03 C 112.86 177.42 102.24 187.55 91.25 197.26 C 86.78 201.06 82.51 206.70 76.00 206.32 C 67.34 206.07 61.30 199.08 55.34 193.69 C 41.47 181.53 27.41 169.58 13.48 157.49 C 7.79 152.56 2.91 146.59 0.00 139.60 L 0.00 132.28 C 3.35 126.69 8.42 122.53 12.92 117.92 C 28.25 102.58 43.58 87.25 58.93 71.92 C 63.88 66.87 68.46 61.45 73.77 56.75 C 94.51 37.93 121.00 24.78 149.11 22.38 C 160.75 21.57 172.42 22.21 184.08 22.02 C 188.24 22.39 190.09 18.07 192.61 15.60 C 197.61 10.43 202.65 5.28 207.55 0.00 M 215.64 8.79 C 215.97 10.75 216.51 12.68 217.53 14.40 C 227.31 15.44 237.16 15.76 247.00 15.69 C 257.81 15.65 268.69 15.95 279.41 14.32 C 280.30 12.60 280.86 10.75 281.24 8.85 C 275.14 8.57 269.09 9.55 263.00 9.58 C 253.67 9.75 244.33 9.74 235.00 9.58 C 228.54 9.51 222.11 8.56 215.64 8.79 M 197.96 21.93 C 195.99 23.61 197.32 26.30 197.66 28.40 C 201.16 41.17 205.36 54.03 212.91 65.04 C 215.50 68.69 218.21 72.39 221.97 74.93 C 228.33 71.04 234.55 66.91 240.71 62.71 C 238.37 59.91 235.39 57.75 232.89 55.11 C 221.24 43.06 213.12 27.97 207.75 12.19 C 204.25 15.19 201.08 18.55 197.96 21.93 M 289.20 12.22 C 286.98 17.36 285.23 22.69 282.71 27.71 C 276.39 40.96 267.32 52.84 256.10 62.32 C 258.39 64.67 261.32 66.19 264.02 67.99 C 267.67 70.28 271.04 73.04 274.95 74.93 C 280.11 71.03 283.77 65.53 286.99 60.00 C 292.61 50.34 295.93 39.59 298.96 28.89 C 299.38 27.08 299.98 25.23 299.78 23.34 C 296.68 19.28 292.97 15.66 289.20 12.22 M 221.12 23.06 C 227.31 36.44 236.31 48.83 248.25 57.62 C 257.40 51.45 264.45 42.54 270.23 33.24 C 272.13 30.01 274.30 26.85 275.18 23.16 C 257.18 24.02 239.11 23.97 221.12 23.06 M 147.03 38.77 C 121.80 41.87 98.58 54.98 80.57 72.56 C 59.86 94.60 37.73 115.28 16.83 137.11 C 18.93 140.90 22.33 143.68 25.47 146.56 C 38.50 157.84 51.58 169.06 64.60 180.35 C 68.19 183.40 71.34 186.94 75.19 189.68 C 77.93 187.99 80.09 185.59 82.47 183.47 C 97.25 170.25 111.96 156.95 126.73 143.72 C 129.76 140.55 135.42 140.24 138.47 143.54 C 140.24 145.17 140.80 147.64 140.73 149.97 C 138.75 245.99 136.71 342.01 134.61 438.03 C 134.52 441.99 134.63 445.97 135.24 449.89 C 142.13 450.80 149.08 450.10 156.00 450.31 C 180.02 450.15 204.07 450.61 228.08 450.08 C 228.18 448.72 228.25 447.35 228.31 445.99 C 228.31 352.33 228.31 258.67 228.31 165.00 C 228.18 137.08 228.56 109.15 228.12 81.24 C 225.47 82.36 222.61 85.01 219.62 83.38 C 215.79 81.42 212.84 78.16 210.07 74.95 C 201.20 64.30 196.08 51.21 191.81 38.19 C 186.55 37.74 181.27 38.08 176.00 38.01 C 166.34 38.12 156.64 37.55 147.03 38.77 M 305.10 38.09 C 303.04 42.59 301.96 47.46 300.00 52.00 C 295.68 62.50 289.86 72.66 281.41 80.39 C 279.56 81.97 277.54 83.78 275.00 83.94 C 272.63 83.41 270.49 82.22 268.34 81.14 C 268.42 204.04 268.39 326.95 268.36 449.84 C 270.22 450.11 272.10 450.34 273.99 450.36 C 298.32 450.24 322.66 450.35 347.00 450.30 C 352.26 450.23 357.56 450.68 362.79 449.90 C 364.23 435.99 362.79 421.96 362.75 408.00 C 361.64 359.67 360.86 311.33 359.67 262.99 C 359.58 239.99 358.29 217.01 358.28 194.00 C 357.72 179.03 357.73 164.04 357.33 149.06 C 357.13 144.89 360.87 141.04 365.07 141.23 C 367.98 140.91 370.37 142.81 372.40 144.63 C 388.26 159.11 404.39 173.30 420.26 187.77 C 421.54 188.82 423.33 190.78 424.80 188.84 C 440.74 174.43 456.74 160.10 472.70 145.71 C 475.70 142.94 479.03 140.49 481.66 137.33 C 462.71 118.29 443.60 99.40 424.72 80.29 C 403.69 56.27 373.48 38.69 341.01 38.04 C 329.04 38.03 317.06 37.87 305.10 38.09 M 236.94 75.23 C 236.78 76.47 236.67 77.72 236.60 78.97 C 236.64 182.98 236.60 286.99 236.62 391.00 C 236.78 410.69 236.30 430.40 236.84 450.08 C 244.60 450.48 252.40 450.47 260.15 450.08 C 260.70 431.07 260.22 412.02 260.38 393.00 C 260.40 288.32 260.36 183.65 260.40 78.98 C 260.33 77.74 260.19 76.51 259.98 75.28 C 256.13 72.65 252.41 69.71 248.10 67.85 C 244.21 70.04 240.49 72.52 236.94 75.23 Z" />
<path fill="#231f20" opacity="1.00" d=" M 246.45 90.42 C 250.21 88.91 254.60 92.68 253.61 96.62 C 252.87 100.79 246.67 102.38 244.23 98.80 C 241.76 96.16 243.31 91.73 246.45 90.42 Z" />
<path fill="#231f20" opacity="1.00" d=" M 246.44 169.41 C 248.90 168.77 251.90 169.60 253.05 172.04 C 255.36 175.99 250.17 181.37 246.16 178.94 C 242.14 177.30 242.46 170.90 246.44 169.41 Z" />
<path fill="#231f20" opacity="1.00" d=" M 246.37 248.35 C 250.40 246.42 255.10 251.03 253.20 255.04 C 252.02 258.66 246.83 259.19 244.42 256.55 C 242.24 254.04 243.13 249.51 246.37 248.35 Z" />
<path fill="#231f20" opacity="1.00" d=" M 246.28 327.21 C 249.82 325.54 254.26 328.78 253.57 332.67 C 253.17 336.86 247.24 338.52 244.57 335.43 C 242.21 333.05 243.12 328.39 246.28 327.21 Z" />
<path fill="#231f20" opacity="1.00" d=" M 248.18 405.49 C 251.76 405.29 254.94 409.73 253.05 412.96 C 251.52 416.27 246.15 416.92 244.18 413.71 C 241.83 410.54 244.21 405.58 248.18 405.49 Z" />
</g>
</svg>
