<?xml version="1.0" encoding="UTF-8" ?>
<!DOCTYPE svg PUBLIC "-//W3C//DTD SVG 1.1//EN" "http://www.w3.org/Graphics/SVG/1.1/DTD/svg11.dtd">
<svg width="500pt" height="442pt" viewBox="0 0 500 442" version="1.1" xmlns="http://www.w3.org/2000/svg">
<g id="#231f20ff">
<path fill="#231f20" opacity="1.00" d=" M 126.61 0.00 L 359.39 0.00 C 362.25 0.29 365.10 0.61 367.98 0.60 C 388.99 0.49 410.02 0.88 430.97 2.62 C 439.91 3.23 448.91 4.09 457.59 6.43 C 462.03 7.66 466.71 9.77 468.98 14.03 C 471.91 19.56 472.86 25.84 474.04 31.91 C 478.40 58.07 480.44 84.52 482.73 110.91 C 489.77 202.81 494.66 294.87 498.88 386.94 C 499.27 393.16 499.08 399.42 500.00 405.61 L 500.00 429.70 C 497.87 436.61 490.11 438.07 483.88 438.85 C 460.70 441.54 437.30 441.16 414.00 441.38 C 384.85 441.25 355.68 441.79 326.55 440.53 C 315.49 440.21 304.39 439.85 293.42 438.31 C 288.62 437.48 282.98 436.00 280.86 431.09 C 277.14 422.83 275.30 413.88 272.87 405.19 C 264.71 372.77 257.70 340.08 250.57 307.42 C 249.39 302.12 248.56 296.73 246.86 291.57 C 245.16 296.77 244.56 302.23 243.50 307.58 C 236.05 347.38 228.79 387.22 220.95 426.95 C 220.34 431.47 217.56 435.88 212.82 436.83 C 200.16 440.06 186.93 439.52 173.97 440.23 C 142.30 440.50 110.63 440.89 78.96 440.64 C 63.63 440.03 48.28 440.81 32.97 439.72 C 24.19 439.07 15.06 439.50 6.71 436.32 C 2.63 434.78 1.10 430.33 0.00 426.50 L 0.00 380.60 C 1.04 372.77 0.44 364.88 0.68 357.02 C 3.01 288.56 6.62 220.13 11.64 151.82 C 14.49 115.91 17.32 79.96 22.39 44.28 C 24.25 33.97 25.15 22.95 30.93 13.90 C 35.33 7.35 43.80 6.31 50.92 4.92 C 69.16 2.18 87.63 1.52 106.04 0.83 C 112.90 0.47 119.80 1.07 126.61 0.00 M 111.21 25.40 C 103.61 57.22 93.80 89.19 75.70 116.76 C 68.52 127.29 59.80 137.19 48.65 143.61 C 44.67 145.99 40.21 147.32 35.95 149.06 C 31.34 212.64 28.13 276.32 25.70 340.02 C 25.69 352.42 24.31 364.80 24.82 377.19 C 30.21 377.55 35.61 377.34 41.00 377.37 C 94.68 377.41 148.36 377.31 202.03 377.42 C 203.30 377.26 205.67 377.80 205.75 375.86 C 215.22 325.56 224.50 275.23 233.86 224.91 C 234.26 220.48 238.95 217.66 238.40 213.05 C 237.96 175.03 237.27 137.02 236.99 99.00 C 236.21 74.28 236.60 49.54 235.91 24.81 C 211.61 24.37 187.30 24.75 163.00 24.62 C 145.73 24.64 128.45 24.52 111.21 25.40 M 248.80 24.80 C 248.25 42.86 248.95 60.94 249.02 79.00 C 249.85 108.33 249.48 137.67 250.31 167.00 C 250.32 182.94 250.33 198.89 250.89 214.83 C 253.27 216.82 256.16 218.63 257.27 221.69 C 258.61 225.36 259.08 229.27 259.92 233.08 C 269.93 280.47 280.03 327.84 290.87 375.05 C 290.88 377.87 294.06 377.35 295.99 377.43 C 355.31 377.18 414.64 377.66 473.95 377.19 C 473.12 351.46 471.36 325.76 470.21 300.04 C 467.38 249.38 464.54 198.71 460.89 148.10 C 451.50 144.20 442.81 138.59 435.91 131.08 C 422.84 117.12 413.95 99.86 406.65 82.34 C 399.79 65.59 394.45 48.24 390.48 30.59 C 390.04 28.76 389.49 26.97 388.93 25.19 C 370.96 24.53 352.98 24.63 335.00 24.62 C 306.27 24.75 277.53 24.38 248.80 24.80 M 402.20 25.37 C 405.35 41.28 410.33 56.81 415.94 72.01 C 421.89 87.48 428.98 102.71 439.10 115.93 C 444.69 123.22 451.49 129.83 459.84 133.87 C 458.74 118.93 457.41 104.01 456.14 89.08 C 454.19 69.08 452.83 48.92 448.71 29.21 C 433.41 26.18 417.70 26.50 402.20 25.37 M 50.14 30.07 C 46.95 39.38 45.82 49.24 44.55 58.95 C 41.25 81.67 39.54 104.58 37.51 127.44 C 37.28 130.00 37.16 132.58 37.10 135.15 C 47.16 131.55 54.83 123.52 61.29 115.31 C 75.81 95.85 84.70 72.89 91.88 49.88 C 94.18 41.97 96.67 34.06 98.01 25.91 C 93.67 25.60 89.34 26.04 85.02 26.34 C 73.36 27.01 61.54 27.29 50.14 30.07 M 24.32 390.01 C 24.24 398.23 23.66 406.46 24.18 414.68 C 33.44 415.12 42.70 415.78 51.98 415.67 C 78.98 416.06 106.00 416.78 133.00 415.99 C 154.80 415.89 176.60 415.62 198.38 414.46 C 200.15 406.35 201.66 398.16 202.96 389.95 C 197.65 389.44 192.32 389.73 187.00 389.69 C 134.32 389.68 81.64 389.71 28.97 389.67 C 27.42 389.71 25.87 389.85 24.32 390.01 M 294.69 389.88 C 295.92 398.20 298.29 406.32 300.60 414.39 C 307.99 415.57 315.50 415.28 322.95 415.83 C 333.95 416.55 344.97 416.15 355.97 416.64 C 375.32 416.74 394.68 417.41 414.03 416.77 C 434.41 416.48 454.82 416.49 475.17 415.01 C 475.79 406.68 474.76 398.36 474.65 390.04 C 470.12 389.46 465.55 389.69 461.00 389.69 C 428.00 389.68 395.00 389.69 362.00 389.69 C 339.57 389.82 317.12 389.44 294.69 389.88 Z" />
<path fill="#231f20" opacity="1.00" d=" M 266.28 43.32 C 272.63 41.46 279.61 47.41 278.39 54.03 C 278.29 61.98 267.17 65.68 261.85 60.17 C 256.17 55.27 258.85 44.73 266.28 43.32 Z" />
</g>
</svg>
