<?xml version="1.0" encoding="UTF-8" ?>
<!DOCTYPE svg PUBLIC "-//W3C//DTD SVG 1.1//EN" "http://www.w3.org/Graphics/SVG/1.1/DTD/svg11.dtd">
<svg width="500pt" height="430pt" viewBox="0 0 500 430" version="1.1" xmlns="http://www.w3.org/2000/svg">
<g id="#231f20ff">
<path fill="#231f20" opacity="1.00" d=" M 192.63 0.00 L 199.23 0.00 C 210.27 5.58 222.13 9.50 234.27 11.86 C 256.97 16.46 280.36 9.94 300.75 0.00 L 307.36 0.00 C 326.02 4.51 345.37 5.63 363.79 11.20 C 382.35 16.66 400.88 23.73 416.25 35.75 C 424.36 42.19 431.84 50.41 434.22 60.78 C 452.02 140.28 469.90 219.76 487.71 299.26 C 491.89 317.05 495.41 334.99 500.00 352.68 L 500.00 362.68 C 497.40 368.54 491.76 372.52 485.44 373.34 C 468.55 375.90 451.63 378.32 434.73 380.87 C 429.49 381.58 423.61 382.16 419.00 379.00 C 413.25 375.14 410.84 368.22 409.22 361.81 C 395.92 306.80 382.56 251.80 369.25 196.80 C 369.13 204.18 369.50 211.56 369.83 218.93 C 372.28 280.29 374.68 341.66 377.18 403.03 C 377.24 409.57 376.62 416.48 373.11 422.17 C 370.74 426.04 366.62 428.32 362.55 430.00 L 137.45 430.00 C 132.65 428.16 127.99 425.10 125.80 420.26 C 121.72 411.77 122.88 402.06 123.23 392.96 C 125.43 338.66 127.56 284.36 129.72 230.06 C 130.05 218.98 130.90 207.90 130.75 196.80 C 117.69 250.73 104.58 304.65 91.58 358.60 C 89.77 366.02 87.75 374.46 80.98 378.98 C 75.15 382.80 67.85 381.23 61.41 380.32 C 45.54 377.76 29.58 375.84 13.74 373.14 C 7.72 372.22 2.55 368.22 0.00 362.71 L 0.00 352.69 C 6.11 328.19 11.20 303.43 16.86 278.82 C 32.26 210.22 47.68 141.62 63.04 73.01 C 64.83 65.50 65.70 57.50 69.86 50.81 C 74.73 42.89 81.92 36.69 89.56 31.54 C 103.73 22.00 119.91 15.99 136.21 11.20 C 154.62 5.63 173.97 4.51 192.63 0.00 M 191.55 15.41 C 179.82 17.52 168.06 19.50 156.27 21.31 C 140.98 24.33 126.06 29.24 111.94 35.82 C 101.56 40.81 91.28 46.88 84.03 56.02 C 80.07 60.83 79.39 67.21 78.04 73.07 C 59.22 156.91 40.42 240.76 21.59 324.59 C 20.52 329.01 19.54 333.45 18.86 337.95 C 38.82 341.52 58.88 344.61 78.91 347.76 C 81.46 339.36 83.06 330.70 85.28 322.21 C 100.59 259.18 115.86 196.13 131.13 133.09 C 132.41 128.33 133.00 123.35 134.84 118.76 C 137.20 113.58 145.85 113.79 147.87 119.16 C 149.42 123.95 148.11 129.06 148.13 133.97 C 144.75 221.29 141.07 308.61 137.82 395.93 C 173.93 396.04 210.03 396.05 246.14 395.93 C 246.45 388.29 246.23 380.64 246.28 373.00 C 246.28 285.00 246.28 197.00 246.28 109.00 C 246.15 82.04 246.53 55.07 246.10 28.12 C 230.33 26.90 214.82 22.96 200.32 16.68 C 197.58 15.44 194.54 14.75 191.55 15.41 M 295.43 18.43 C 284.38 22.86 272.77 25.81 260.98 27.43 C 265.30 29.36 269.83 30.81 274.07 32.93 C 278.89 35.28 279.66 41.70 278.12 46.31 C 275.86 52.74 267.86 56.09 261.67 53.24 C 257.25 51.52 256.10 46.45 254.00 42.71 C 253.54 49.47 253.73 56.24 253.72 63.00 C 253.72 145.00 253.72 227.00 253.72 309.00 C 253.82 337.98 253.52 366.96 253.86 395.93 C 289.97 396.05 326.08 396.05 362.18 395.93 C 361.76 378.96 360.82 362.00 360.26 345.03 C 357.25 271.23 354.45 197.41 351.40 123.61 C 351.18 120.18 352.80 116.30 356.36 115.32 C 360.49 113.88 365.30 116.61 365.98 120.98 C 378.79 174.41 391.87 227.79 404.75 281.21 C 410.32 303.45 415.32 325.83 421.13 348.00 C 441.22 344.86 461.36 341.85 481.35 338.10 C 461.20 247.27 440.58 156.53 420.35 65.71 C 419.52 61.74 417.77 57.97 415.09 54.92 C 407.68 46.21 397.61 40.34 387.40 35.51 C 373.72 29.23 359.33 24.47 344.58 21.47 C 333.68 19.69 322.75 18.04 311.89 15.99 C 309.36 15.57 306.79 14.95 304.21 15.25 C 301.14 15.84 298.33 17.30 295.43 18.43 M 259.74 35.10 C 260.70 38.11 261.61 41.17 263.05 44.00 C 263.74 45.22 264.42 46.95 266.14 46.71 C 269.83 47.29 272.86 42.64 270.60 39.58 C 267.34 37.34 263.43 36.37 259.74 35.10 M 17.07 345.27 C 15.89 349.51 14.95 353.81 14.25 358.15 C 16.79 358.76 19.34 359.34 21.90 359.90 C 23.01 355.57 23.84 351.19 24.48 346.77 C 22.02 346.23 19.55 345.75 17.07 345.27 M 474.39 347.00 C 474.97 351.26 475.79 355.50 476.84 359.68 C 479.90 359.44 482.94 358.96 485.89 358.09 C 485.11 353.92 484.17 349.78 482.97 345.71 C 480.11 346.13 477.25 346.56 474.39 347.00 M 28.40 347.25 C 27.48 351.50 26.72 355.79 26.00 360.08 C 27.95 360.47 29.91 360.83 31.87 361.18 C 32.99 356.88 33.78 352.51 34.07 348.08 C 32.18 347.78 30.29 347.50 28.40 347.25 M 464.99 348.25 C 465.04 352.66 465.79 357.02 466.99 361.26 C 468.89 361.01 470.79 360.77 472.70 360.52 C 472.20 356.35 471.47 352.21 470.61 348.10 C 468.73 348.12 466.86 348.18 464.99 348.25 M 38.22 349.03 C 37.26 353.25 36.51 357.52 36.02 361.82 C 37.77 362.05 39.52 362.29 41.27 362.54 C 42.65 358.33 43.43 353.95 43.70 349.53 C 41.87 349.35 40.05 349.18 38.22 349.03 M 455.10 350.16 C 455.53 354.40 456.30 358.60 457.33 362.75 C 459.17 362.49 461.02 362.21 462.86 361.93 C 462.29 357.69 461.53 353.47 460.65 349.29 C 458.80 349.56 456.94 349.85 455.10 350.16 M 45.66 363.06 C 47.40 363.42 49.14 363.76 50.89 364.09 C 52.30 359.88 52.96 355.47 53.24 351.04 C 51.45 350.87 49.66 350.70 47.88 350.52 C 46.87 354.65 46.08 358.83 45.66 363.06 M 445.32 351.82 C 446.00 355.82 446.72 359.82 447.49 363.81 C 449.32 363.80 451.15 363.77 452.99 363.72 C 452.86 359.37 452.09 355.07 450.90 350.90 C 449.03 351.18 447.17 351.48 445.32 351.82 M 57.35 352.01 C 56.43 356.23 55.69 360.50 55.20 364.80 C 57.03 364.88 58.86 364.91 60.68 364.92 C 61.50 360.92 62.19 356.91 62.83 352.89 C 61.01 352.56 59.18 352.27 57.35 352.01 M 436.22 353.26 C 436.65 357.25 437.32 361.20 438.16 365.13 C 440.02 365.10 441.88 365.03 443.74 364.94 C 443.20 360.64 442.40 356.37 441.19 352.20 C 439.53 352.56 437.87 352.91 436.22 353.26 M 66.87 353.32 C 65.76 357.47 65.03 361.72 64.75 366.01 C 67.55 366.27 70.57 367.49 73.30 366.35 C 76.04 363.32 76.32 359.01 77.12 355.19 C 73.71 354.50 70.29 353.90 66.87 353.32 M 422.94 355.27 C 423.47 359.49 424.57 363.69 427.08 367.19 C 429.44 366.81 431.82 366.44 434.19 366.09 C 433.84 361.98 433.11 357.90 431.92 353.95 C 428.93 354.39 425.93 354.82 422.94 355.27 M 138.03 402.46 C 136.77 406.78 137.66 411.26 139.52 415.25 C 139.53 411.00 140.95 406.09 138.03 402.46 M 186.34 403.34 C 186.19 407.44 186.19 411.55 186.34 415.66 C 188.91 415.61 191.48 415.61 194.06 415.66 C 194.63 411.57 194.63 407.43 194.06 403.35 C 191.48 403.39 188.91 403.39 186.34 403.34 M 198.34 403.37 C 198.20 407.45 198.20 411.54 198.34 415.63 C 201.45 415.60 204.56 415.60 207.67 415.64 C 207.80 411.54 207.80 407.45 207.67 403.37 C 204.56 403.40 201.45 403.40 198.34 403.37 M 212.03 403.37 C 211.60 407.44 211.60 411.55 212.03 415.63 C 215.58 415.62 219.12 415.62 222.66 415.61 C 222.80 411.54 222.80 407.46 222.66 403.38 C 219.12 403.38 215.57 403.38 212.03 403.37 M 266.35 403.35 C 266.19 407.45 266.19 411.55 266.35 415.65 C 268.55 415.63 270.75 415.64 272.95 415.66 C 273.41 411.56 273.41 407.43 272.95 403.34 C 270.75 403.36 268.55 403.36 266.35 403.35 M 277.33 403.36 C 277.20 407.45 277.20 411.54 277.34 415.64 C 280.58 415.61 283.81 415.60 287.06 415.64 C 287.63 411.57 287.63 407.43 287.06 403.36 C 283.81 403.39 280.57 403.39 277.33 403.36 M 291.34 403.34 C 291.19 407.44 291.19 411.55 291.34 415.66 C 293.91 415.61 296.48 415.61 299.06 415.65 C 299.63 411.57 299.63 407.43 299.06 403.35 C 296.49 403.39 293.91 403.39 291.34 403.34 M 317.17 403.36 C 316.92 407.45 316.92 411.55 317.17 415.64 C 320.66 415.62 324.16 415.61 327.66 415.61 C 327.80 411.54 327.80 407.46 327.67 403.39 C 324.16 403.38 320.66 403.38 317.17 403.36 M 344.33 403.38 C 344.20 407.46 344.20 411.54 344.34 415.62 C 347.78 415.61 351.22 415.61 354.66 415.62 C 354.80 411.54 354.80 407.46 354.67 403.38 C 351.22 403.38 347.78 403.38 344.33 403.38 M 143.70 403.67 C 143.50 407.55 143.50 411.44 143.69 415.33 C 147.11 415.45 150.54 415.45 153.96 415.32 C 154.05 411.44 154.05 407.56 153.96 403.68 C 150.54 403.54 147.11 403.55 143.70 403.67 M 158.04 403.68 C 157.95 407.56 157.95 411.44 158.04 415.32 C 161.42 415.45 164.80 415.45 168.18 415.33 C 168.32 411.44 168.32 407.55 168.18 403.67 C 164.80 403.55 161.42 403.55 158.04 403.68 M 172.04 403.68 C 171.95 407.56 171.95 411.44 172.04 415.32 C 175.42 415.45 178.80 415.45 182.18 415.32 C 182.32 411.44 182.32 407.55 182.18 403.67 C 178.80 403.55 175.42 403.55 172.04 403.68 M 226.69 403.63 C 226.50 407.54 226.50 411.45 226.69 415.37 C 229.52 415.38 232.35 415.38 235.18 415.36 C 235.33 411.45 235.33 407.54 235.18 403.64 C 232.35 403.62 229.52 403.61 226.69 403.63 M 239.04 403.65 C 238.94 407.54 238.94 411.45 239.04 415.35 C 241.41 415.35 243.79 415.36 246.17 415.36 C 246.33 411.45 246.33 407.55 246.17 403.65 C 243.79 403.64 241.41 403.64 239.04 403.65 M 253.82 403.64 C 253.67 407.55 253.67 411.45 253.82 415.36 C 256.65 415.38 259.48 415.38 262.31 415.37 C 262.50 411.45 262.50 407.54 262.31 403.63 C 259.48 403.61 256.65 403.62 253.82 403.64 M 303.70 403.64 C 303.50 407.54 303.50 411.45 303.70 415.36 C 306.78 415.41 309.87 415.41 312.96 415.34 C 313.05 411.45 313.05 407.55 312.96 403.65 C 309.87 403.59 306.78 403.59 303.70 403.64 M 331.82 403.64 C 331.67 407.54 331.67 411.45 331.82 415.36 C 334.65 415.38 337.48 415.38 340.31 415.37 C 340.50 411.46 340.50 407.54 340.31 403.64 C 337.48 403.61 334.65 403.62 331.82 403.64 M 358.65 403.69 C 358.48 407.66 358.44 411.66 358.95 415.61 C 363.06 413.05 362.33 407.83 362.46 403.68 C 361.50 403.68 359.60 403.69 358.65 403.69 Z" />
<path fill="#231f20" opacity="1.00" d=" M 285.33 104.51 C 290.02 104.00 294.84 103.88 299.51 104.61 C 303.01 105.10 303.00 110.89 299.51 111.39 C 295.71 112.08 291.80 111.87 287.96 111.76 C 285.97 111.62 283.47 111.60 282.39 109.59 C 281.80 107.49 282.81 104.55 285.33 104.51 Z" />
<path fill="#231f20" opacity="1.00" d=" M 309.35 104.51 C 314.04 103.99 318.86 103.90 323.54 104.61 C 326.84 105.11 326.83 110.89 323.54 111.40 C 319.72 112.07 315.81 111.87 311.95 111.76 C 310.20 111.57 308.04 111.71 306.82 110.18 C 305.25 108.14 306.55 104.53 309.35 104.51 Z" />
<path fill="#231f20" opacity="1.00" d=" M 192.46 294.40 C 195.90 293.24 197.78 297.05 197.32 299.96 C 197.09 317.73 195.36 336.19 187.23 352.29 C 183.56 359.09 178.43 366.21 170.69 368.50 C 166.65 369.55 164.56 363.22 168.52 361.72 C 177.43 356.86 182.17 347.33 185.02 338.01 C 188.63 326.01 189.60 313.44 189.85 300.97 C 190.14 298.68 189.68 295.27 192.46 294.40 Z" />
<path fill="#231f20" opacity="1.00" d=" M 300.46 294.40 C 302.96 293.56 305.73 295.50 305.44 298.22 C 305.70 311.22 306.41 324.36 310.08 336.92 C 312.13 343.83 314.91 350.77 319.79 356.20 C 322.34 359.12 326.03 360.68 328.71 363.45 C 329.99 366.14 327.18 369.31 324.37 368.44 C 320.42 367.31 317.18 364.52 314.45 361.56 C 308.28 354.57 304.65 345.72 302.29 336.80 C 299.20 325.11 298.37 312.98 297.99 300.94 C 298.01 298.62 297.79 295.39 300.46 294.40 Z" />
</g>
</svg>
