<?xml version="1.0" encoding="UTF-8" ?>
<!DOCTYPE svg PUBLIC "-//W3C//DTD SVG 1.1//EN" "http://www.w3.org/Graphics/SVG/1.1/DTD/svg11.dtd">
<svg width="500pt" height="444pt" viewBox="0 0 500 444" version="1.1" xmlns="http://www.w3.org/2000/svg">
<g id="#231f20ff">
<path fill="#231f20" opacity="1.00" d=" M 151.60 0.00 L 190.36 0.00 C 196.03 1.86 201.83 3.31 207.74 4.18 C 231.74 8.39 256.37 9.28 280.58 6.29 C 289.74 4.91 298.93 3.24 307.64 0.00 L 351.28 0.00 C 357.74 1.41 364.29 2.51 370.67 4.27 C 392.42 10.59 412.26 22.81 428.43 38.58 C 445.26 56.40 462.93 73.40 480.17 90.83 C 486.83 97.95 494.71 104.07 500.00 112.38 L 500.00 118.59 C 496.15 125.06 490.03 129.61 484.56 134.61 C 466.71 150.74 448.72 166.73 430.94 182.95 C 427.58 186.17 422.15 187.58 418.04 184.92 C 413.13 181.62 409.25 177.04 404.71 173.27 C 394.35 164.29 384.56 154.62 373.89 146.01 C 373.47 156.35 374.45 166.69 374.34 177.03 C 376.00 257.02 377.90 337.01 379.44 417.01 C 379.43 423.69 379.38 430.85 375.82 436.76 C 373.79 440.27 370.15 442.37 366.56 444.00 L 131.39 444.00 C 127.61 442.29 123.83 439.99 121.85 436.20 C 118.45 430.08 118.58 422.83 118.58 416.03 C 120.44 331.36 122.23 246.68 124.00 162.00 C 124.14 156.68 124.47 151.35 124.11 146.03 C 120.23 148.77 116.87 152.15 113.34 155.31 C 104.41 163.38 95.38 171.35 86.51 179.49 C 83.43 182.37 79.43 184.81 75.03 184.15 C 66.34 183.28 60.48 176.10 54.33 170.70 C 41.32 159.35 28.21 148.11 15.12 136.85 C 8.80 131.59 3.19 125.25 0.00 117.58 L 0.00 110.31 C 3.00 105.06 7.59 101.04 11.83 96.83 C 27.17 81.51 42.48 66.15 57.84 50.84 C 63.70 45.02 68.98 38.61 75.31 33.28 C 96.44 14.63 123.29 1.93 151.60 0.00 M 211.02 13.05 C 208.28 12.59 205.54 12.18 202.78 11.94 C 209.78 20.22 218.93 26.65 228.67 31.33 C 240.71 37.29 254.85 36.78 267.62 33.70 C 280.70 30.63 292.74 22.64 299.72 11.04 C 270.66 17.63 240.37 17.83 211.02 13.05 M 128.84 20.73 C 107.27 27.74 88.13 41.25 73.26 58.27 C 57.43 74.43 41.27 90.28 25.34 106.34 C 22.56 109.25 19.30 111.75 17.01 115.09 C 18.60 118.59 21.73 121.02 24.46 123.59 C 38.20 135.51 52.01 147.33 65.74 159.25 C 68.85 161.95 71.60 165.09 75.06 167.35 C 77.71 166.04 79.77 163.86 81.93 161.90 C 96.44 148.77 111.08 135.77 125.57 122.61 C 127.64 120.82 130.01 118.82 132.94 119.06 C 137.14 119.08 140.97 122.75 140.69 127.05 C 140.06 158.36 139.58 189.69 138.71 221.00 C 138.68 240.68 137.63 260.34 137.60 280.03 C 137.34 292.01 136.94 304.00 136.70 315.99 C 136.67 335.00 135.65 354.00 135.61 373.01 C 135.33 388.01 134.74 403.01 134.58 418.02 C 134.59 421.29 134.64 424.60 135.30 427.83 C 136.83 428.14 138.40 428.26 139.96 428.32 C 212.65 428.29 285.34 428.29 358.03 428.32 C 359.60 428.26 361.18 428.15 362.73 427.83 C 363.90 421.62 363.28 415.27 363.30 409.00 C 361.59 337.67 360.41 266.33 358.69 195.00 C 358.47 172.06 357.52 149.12 357.39 126.19 C 357.48 119.74 366.39 116.74 370.77 121.19 C 385.05 133.91 399.23 146.76 413.49 159.51 C 416.68 162.27 419.57 165.42 423.06 167.84 C 424.25 167.13 425.33 166.26 426.38 165.35 C 442.27 150.92 458.29 136.62 474.24 122.25 C 476.73 120.02 479.45 117.98 481.54 115.34 C 461.29 93.98 439.90 73.72 419.43 52.58 C 397.84 30.27 367.53 14.91 336.00 15.98 C 329.14 16.29 322.19 15.40 315.38 16.39 C 313.42 18.84 312.04 21.68 310.22 24.23 C 304.15 32.85 295.63 39.61 286.15 44.14 C 271.50 51.03 254.81 53.28 238.80 51.22 C 220.92 48.36 205.54 37.53 192.69 25.31 C 189.52 22.49 187.16 18.82 183.74 16.29 C 176.87 15.49 169.91 16.27 163.00 15.98 C 151.45 15.61 139.83 17.13 128.84 20.73 Z" />
</g>
</svg>
