<?xml version="1.0" encoding="UTF-8" ?>
<!DOCTYPE svg PUBLIC "-//W3C//DTD SVG 1.1//EN" "http://www.w3.org/Graphics/SVG/1.1/DTD/svg11.dtd">
<svg width="500pt" height="435pt" viewBox="0 0 500 435" version="1.1" xmlns="http://www.w3.org/2000/svg">
<g id="#efc5cdff">
<path fill="#efc5cd" opacity="1.00" d=" M 260.48 0.00 L 269.53 0.00 C 295.04 2.11 320.53 8.97 342.45 22.47 C 355.59 28.66 366.11 38.95 377.45 47.79 C 373.78 47.72 370.16 47.00 366.51 46.80 C 367.51 48.65 368.63 50.46 370.04 52.04 C 387.56 70.20 400.25 93.51 404.16 118.57 C 404.46 123.36 406.01 128.87 403.08 133.14 C 400.55 131.58 399.14 128.87 397.41 126.56 C 392.73 119.70 387.64 113.13 382.02 107.02 C 391.46 121.90 398.38 138.36 402.09 155.60 C 391.45 170.24 387.66 188.31 382.43 205.30 C 381.54 195.80 382.18 186.24 383.34 176.80 C 383.60 173.65 384.39 170.16 382.82 167.22 C 380.00 162.55 373.46 161.47 368.81 163.84 C 365.75 165.71 364.81 169.48 364.36 172.81 C 363.05 182.83 362.62 192.97 363.26 203.06 C 363.46 206.87 364.37 210.60 365.54 214.22 C 361.19 223.88 357.96 234.54 350.41 242.30 C 349.92 238.25 349.79 234.12 350.55 230.10 C 352.70 217.77 354.69 205.42 356.46 193.04 C 356.96 189.50 356.95 185.43 354.44 182.60 C 352.06 180.11 347.97 178.82 344.82 180.60 C 342.01 182.29 340.60 185.45 339.65 188.45 C 336.27 200.00 335.44 212.09 334.98 224.05 C 334.96 226.97 333.38 229.52 332.21 232.10 C 329.21 238.00 326.45 244.28 321.45 248.82 C 324.02 232.03 329.03 215.71 331.99 199.00 C 333.28 192.01 330.18 184.66 324.83 180.15 C 321.21 177.19 316.37 176.85 311.90 176.61 C 314.05 166.64 316.83 156.70 321.15 147.43 C 321.40 152.97 321.12 158.52 321.20 164.07 C 321.33 169.46 327.31 174.07 332.52 172.39 C 334.97 171.23 334.82 168.21 335.13 165.94 C 335.81 156.59 337.47 146.77 334.19 137.72 C 332.06 131.98 323.13 130.34 319.69 135.67 C 311.34 149.99 307.45 166.28 302.81 182.04 C 300.60 189.08 300.35 196.58 297.78 203.50 C 296.83 193.65 298.54 183.81 299.81 174.07 C 301.03 164.32 302.66 154.62 304.25 144.93 C 305.03 140.91 304.04 136.02 300.26 133.83 C 297.46 132.35 294.19 131.47 291.02 131.84 C 287.77 132.34 286.40 135.73 285.71 138.54 C 279.86 166.26 278.54 194.70 278.77 222.95 C 278.93 229.41 282.05 235.75 286.95 239.91 C 289.59 242.33 293.79 242.78 296.89 241.03 C 299.39 239.24 299.54 235.86 299.91 233.09 C 301.28 218.25 304.48 203.63 308.26 189.23 C 308.76 186.37 311.96 186.12 314.25 185.67 C 312.88 198.01 309.32 209.97 306.83 222.11 C 305.00 229.83 302.91 238.21 306.18 245.86 C 308.28 250.89 311.56 257.28 317.93 257.05 C 321.80 257.66 325.36 255.56 327.73 252.65 C 331.35 248.64 333.80 243.75 336.16 238.93 C 337.59 243.48 339.79 248.42 344.42 250.48 C 348.04 251.67 352.61 251.38 355.18 248.23 C 362.05 240.61 365.40 230.66 369.49 221.43 C 372.95 224.77 378.23 227.18 382.91 224.91 C 384.63 223.49 385.07 221.16 385.65 219.13 C 389.74 201.04 395.09 183.04 404.02 166.69 C 404.81 172.87 405.59 179.11 405.25 185.35 C 400.63 198.24 395.67 211.25 394.49 225.01 C 394.03 230.22 394.78 235.46 396.33 240.44 C 385.05 274.41 362.09 304.37 332.56 324.56 C 333.38 325.84 334.21 327.13 335.02 328.43 C 319.80 339.04 302.67 346.91 284.64 351.35 C 271.37 354.88 257.64 356.11 243.98 356.90 C 241.08 357.05 238.23 357.59 235.44 358.36 C 236.19 359.18 236.77 360.49 238.08 360.52 C 242.94 361.10 247.85 361.25 252.75 361.28 C 252.75 362.08 252.76 363.69 252.76 364.50 C 286.99 365.53 321.08 354.46 349.06 334.91 C 349.75 335.84 350.44 336.78 351.14 337.72 C 348.63 339.54 346.06 341.28 343.58 343.13 C 348.93 340.30 354.11 337.18 359.52 334.45 C 373.07 327.32 384.11 316.33 393.59 304.47 C 410.28 283.27 421.88 258.23 428.51 232.13 C 430.31 233.76 432.55 234.77 434.85 235.51 C 418.66 299.74 369.34 355.27 306.19 376.32 C 272.81 387.62 236.18 388.70 202.08 379.96 C 197.37 378.74 192.35 379.87 187.74 378.19 C 177.87 374.78 168.51 370.03 159.46 364.84 C 159.69 365.58 160.15 367.04 160.38 367.77 C 155.13 367.14 150.53 364.38 146.16 361.59 C 103.30 334.14 71.11 289.90 59.75 240.14 C 62.41 236.54 64.44 232.53 66.20 228.43 C 69.14 232.40 73.90 235.03 78.94 234.49 C 82.70 234.37 85.72 231.71 87.69 228.72 C 91.11 223.75 93.30 218.10 96.15 212.81 C 96.72 217.22 97.45 221.60 98.08 226.00 C 98.73 229.02 96.33 231.32 94.71 233.53 C 87.48 242.52 85.64 254.69 86.73 265.90 C 86.96 270.54 91.42 274.15 95.98 273.66 C 102.63 272.96 108.27 267.97 110.87 261.97 C 115.44 251.10 117.09 239.23 117.05 227.50 C 118.33 226.21 119.58 224.89 120.83 223.56 C 122.72 236.21 126.69 249.01 135.10 258.91 C 137.47 261.75 141.19 263.87 144.99 263.13 C 149.08 262.32 152.18 259.32 155.29 256.78 C 149.88 242.98 147.21 227.50 151.03 212.94 C 152.09 208.38 154.79 204.17 159.12 202.11 C 160.88 206.58 162.21 211.25 162.95 215.99 C 163.36 218.20 161.38 219.74 160.31 221.42 C 155.85 226.88 155.00 234.24 155.02 241.05 C 155.25 245.75 156.11 250.99 159.74 254.34 C 163.01 257.32 168.53 256.72 171.29 253.33 C 178.89 244.76 182.46 233.19 182.52 221.85 C 185.55 226.96 190.51 232.01 196.94 231.58 C 206.36 231.61 212.07 222.65 216.96 215.82 C 216.34 220.47 215.82 225.22 216.51 229.89 C 217.30 236.14 223.57 241.45 229.93 240.43 C 233.03 239.90 235.41 237.56 237.12 235.07 C 243.12 226.13 246.72 215.92 251.27 206.24 C 252.42 203.37 254.22 200.31 253.28 197.12 C 252.54 196.01 251.27 195.48 250.25 194.71 C 246.99 198.66 245.35 203.56 243.14 208.11 C 238.92 216.98 235.27 226.32 229.06 234.05 C 227.60 225.99 231.64 218.53 233.85 211.03 C 237.05 200.56 242.77 190.91 244.66 180.05 C 246.19 175.05 239.46 170.50 235.33 173.30 C 232.52 175.10 229.21 175.43 225.96 175.06 C 227.31 169.88 229.44 164.61 228.58 159.17 C 227.95 155.39 223.88 152.55 220.13 153.88 C 216.46 155.17 215.28 159.31 214.23 162.64 C 212.26 160.81 209.98 158.99 207.13 159.12 C 199.61 158.94 193.20 164.38 189.27 170.36 C 182.04 180.96 179.51 193.99 179.29 206.63 C 176.85 201.79 174.29 196.33 169.11 193.90 C 163.90 191.41 156.92 191.35 152.47 195.42 C 148.32 199.14 146.26 204.55 145.02 209.87 C 143.27 217.01 143.47 224.40 142.66 231.67 C 139.47 220.72 137.91 209.29 138.29 197.89 C 138.16 196.65 139.14 195.78 139.83 194.90 C 148.11 185.72 155.67 175.25 158.67 163.07 C 159.60 158.53 160.52 153.62 158.92 149.13 C 157.06 144.07 151.01 142.10 146.06 142.70 C 140.15 143.43 135.94 148.11 132.28 152.36 C 123.23 163.42 120.12 178.01 119.30 191.96 C 118.72 199.30 119.05 206.67 119.72 213.99 C 118.43 215.53 117.14 217.06 115.86 218.61 C 114.18 210.09 112.52 201.52 109.83 193.24 C 108.37 189.27 106.85 185.16 104.05 181.91 C 100.73 178.17 94.41 178.70 91.09 182.18 C 91.26 186.13 92.59 190.04 92.02 194.01 C 89.95 205.40 85.76 216.68 78.13 225.55 C 75.66 208.70 81.22 192.31 84.15 175.93 C 85.66 170.31 78.27 166.33 73.70 168.82 C 69.13 171.09 67.62 176.44 65.85 180.84 C 61.86 193.12 60.76 206.42 62.74 219.18 C 61.96 222.74 60.02 225.93 58.56 229.25 L 58.16 228.94 C 57.51 228.00 57.14 226.95 57.04 225.82 C 54.58 207.92 54.45 189.57 57.79 171.79 C 61.57 166.81 65.59 161.85 67.59 155.83 C 69.95 149.20 71.61 141.27 67.88 134.82 C 77.03 111.19 89.86 88.96 105.90 69.33 C 105.51 69.15 104.75 68.79 104.36 68.61 C 111.18 62.52 116.12 54.59 123.41 48.99 C 123.95 49.40 125.04 50.24 125.58 50.65 C 130.23 47.10 134.76 43.39 139.27 39.66 C 139.58 40.06 140.22 40.85 140.54 41.25 C 154.08 29.58 170.62 22.44 186.08 13.79 C 186.27 14.25 186.65 15.17 186.85 15.63 C 196.49 11.13 207.02 9.20 217.08 5.92 C 231.16 1.72 245.93 1.07 260.48 0.00 M 350.10 152.32 C 348.48 152.97 347.99 154.81 347.47 156.30 C 346.45 159.91 345.30 163.82 346.44 167.54 C 347.51 170.63 351.01 171.84 353.95 172.30 C 356.45 172.63 357.84 170.29 358.31 168.21 C 359.32 164.07 360.28 159.49 358.49 155.43 C 357.15 152.35 353.08 151.32 350.10 152.32 Z" />
<path fill="#efc5cd" opacity="1.00" d=" M 426.21 118.30 C 433.19 134.03 437.44 150.91 439.51 167.97 C 438.43 168.92 437.39 169.90 436.41 170.95 C 435.81 153.00 431.82 135.32 426.21 118.30 Z" />
<path fill="#efc5cd" opacity="1.00" d=" M 144.51 161.32 C 145.97 156.95 147.83 152.14 152.28 150.03 C 153.07 153.25 153.36 156.66 152.46 159.89 C 150.04 169.05 145.55 177.58 139.79 185.07 C 141.17 177.11 142.14 169.05 144.51 161.32 Z" />
<path fill="#efc5cd" opacity="1.00" d=" M 220.79 169.20 C 220.46 166.53 220.96 163.85 222.59 161.67 C 222.14 164.21 221.57 166.73 220.79 169.20 Z" />
<path fill="#efc5cd" opacity="1.00" d=" M 199.55 186.75 C 200.57 179.14 203.44 171.20 209.50 166.16 C 211.76 174.44 205.50 181.84 199.55 186.75 Z" />
<path fill="#efc5cd" opacity="1.00" d=" M 216.32 174.12 C 217.15 174.95 217.98 175.76 218.82 176.58 C 216.75 183.82 212.86 190.36 210.58 197.52 C 209.57 199.93 210.81 203.69 213.95 203.29 C 215.00 202.54 215.60 201.36 216.23 200.28 C 219.77 193.65 222.12 186.49 224.66 179.45 C 226.50 180.01 228.35 180.57 230.20 181.11 C 227.95 185.54 225.70 189.97 223.79 194.56 C 220.07 194.99 219.33 199.03 217.80 201.75 C 214.35 208.32 210.48 214.87 205.01 219.96 C 202.68 221.83 199.38 224.56 196.37 222.48 C 194.61 220.38 195.35 217.39 195.36 214.89 C 195.83 209.77 196.20 204.63 196.82 199.53 C 197.47 196.14 200.91 194.43 203.20 192.19 C 208.91 187.35 214.44 181.60 216.32 174.12 Z" />
<path fill="#efc5cd" opacity="1.00" d=" M 163.62 245.47 C 161.47 240.83 161.74 235.45 163.63 230.78 C 163.83 235.67 163.83 240.58 163.62 245.47 Z" />
<path fill="#efc5cd" opacity="1.00" d=" M 94.61 249.43 C 95.47 246.72 96.25 243.79 98.35 241.74 C 98.90 249.90 98.20 258.29 95.28 265.98 C 92.48 260.92 93.20 254.80 94.61 249.43 Z" />
</g>
<g id="#000000ff">
<path fill="#000000" opacity="1.00" d=" M 46.93 140.96 C 49.27 136.85 52.41 132.61 57.10 131.11 C 61.10 129.91 65.15 131.98 67.88 134.82 C 71.61 141.27 69.95 149.20 67.59 155.83 C 65.59 161.85 61.57 166.81 57.79 171.79 C 54.82 175.87 55.39 181.18 54.66 185.92 C 53.11 202.60 49.95 219.56 52.92 236.24 C 55.33 234.40 57.37 232.06 58.56 229.25 C 60.02 225.93 61.96 222.74 62.74 219.18 C 60.76 206.42 61.86 193.12 65.85 180.84 C 67.62 176.44 69.13 171.09 73.70 168.82 C 78.27 166.33 85.66 170.31 84.15 175.93 C 81.22 192.31 75.66 208.70 78.13 225.55 C 85.76 216.68 89.95 205.40 92.02 194.01 C 92.59 190.04 91.26 186.13 91.09 182.18 C 94.41 178.70 100.73 178.17 104.05 181.91 C 106.85 185.16 108.37 189.27 109.83 193.24 C 112.52 201.52 114.18 210.09 115.86 218.61 C 117.14 217.06 118.43 215.53 119.72 213.99 C 119.05 206.67 118.72 199.30 119.30 191.96 C 120.12 178.01 123.23 163.42 132.28 152.36 C 135.94 148.11 140.15 143.43 146.06 142.70 C 151.01 142.10 157.06 144.07 158.92 149.13 C 160.52 153.62 159.60 158.53 158.67 163.07 C 155.67 175.25 148.11 185.72 139.83 194.90 C 139.14 195.78 138.16 196.65 138.29 197.89 C 137.91 209.29 139.47 220.72 142.66 231.67 C 143.47 224.40 143.27 217.01 145.02 209.87 C 146.26 204.55 148.32 199.14 152.47 195.42 C 156.92 191.35 163.90 191.41 169.11 193.90 C 174.29 196.33 176.85 201.79 179.29 206.63 C 179.51 193.99 182.04 180.96 189.27 170.36 C 193.20 164.38 199.61 158.94 207.13 159.12 C 209.98 158.99 212.26 160.81 214.23 162.64 C 215.28 159.31 216.46 155.17 220.13 153.88 C 223.88 152.55 227.95 155.39 228.58 159.17 C 229.44 164.61 227.31 169.88 225.96 175.06 C 229.21 175.43 232.52 175.10 235.33 173.30 C 239.46 170.50 246.19 175.05 244.66 180.05 C 242.77 190.91 237.05 200.56 233.85 211.03 C 231.64 218.53 227.60 225.99 229.06 234.05 C 235.27 226.32 238.92 216.98 243.14 208.11 C 245.35 203.56 246.99 198.66 250.25 194.71 C 251.27 195.48 252.54 196.01 253.28 197.12 C 254.22 200.31 252.42 203.37 251.27 206.24 C 246.72 215.92 243.12 226.13 237.12 235.07 C 235.41 237.56 233.03 239.90 229.93 240.43 C 223.57 241.45 217.30 236.14 216.51 229.89 C 215.82 225.22 216.34 220.47 216.96 215.82 C 212.07 222.65 206.36 231.61 196.94 231.58 C 190.51 232.01 185.55 226.96 182.52 221.85 C 182.46 233.19 178.89 244.76 171.29 253.33 C 168.53 256.72 163.01 257.32 159.74 254.34 C 156.11 250.99 155.25 245.75 155.02 241.05 C 155.00 234.24 155.85 226.88 160.31 221.42 C 161.38 219.74 163.36 218.20 162.95 215.99 C 162.21 211.25 160.88 206.58 159.12 202.11 C 154.79 204.17 152.09 208.38 151.03 212.94 C 147.21 227.50 149.88 242.98 155.29 256.78 C 152.18 259.32 149.08 262.32 144.99 263.13 C 141.19 263.87 137.47 261.75 135.10 258.91 C 126.69 249.01 122.72 236.21 120.83 223.56 C 119.58 224.89 118.33 226.21 117.05 227.50 C 117.09 239.23 115.44 251.10 110.87 261.97 C 108.27 267.97 102.63 272.96 95.98 273.66 C 91.42 274.15 86.96 270.54 86.73 265.90 C 85.64 254.69 87.48 242.52 94.71 233.53 C 96.33 231.32 98.73 229.02 98.08 226.00 C 97.45 221.60 96.72 217.22 96.15 212.81 C 93.30 218.10 91.11 223.75 87.69 228.72 C 85.72 231.71 82.70 234.37 78.94 234.49 C 73.90 235.03 69.14 232.40 66.20 228.43 C 64.44 232.53 62.41 236.54 59.75 240.14 C 57.69 242.23 55.13 244.30 52.00 244.07 C 46.05 244.47 41.48 239.21 39.86 233.96 C 35.48 219.94 36.66 205.04 36.48 190.56 C 33.68 192.92 29.65 194.94 29.46 199.08 C 28.02 210.93 26.29 222.88 22.04 234.10 C 20.14 239.06 18.12 244.38 13.77 247.74 C 10.86 250.15 6.11 250.24 3.30 247.63 C 1.28 245.22 0.83 241.95 0.42 238.95 C -0.58 228.35 1.89 217.70 5.99 207.98 C 7.46 204.34 10.21 201.13 10.53 197.08 C 12.13 180.01 13.82 162.94 15.31 145.86 C 15.68 142.64 15.89 139.31 17.21 136.32 C 18.69 133.09 23.10 132.22 26.01 134.00 C 29.86 136.21 31.38 140.84 31.52 145.05 C 32.28 158.82 31.14 172.60 30.48 186.35 C 32.64 184.85 35.04 183.58 36.76 181.53 C 38.06 179.23 38.10 176.48 38.62 173.94 C 40.53 162.78 41.59 151.15 46.93 140.96 M 59.07 156.45 C 61.48 151.96 63.75 146.85 62.23 141.67 C 60.19 146.31 59.55 151.44 59.07 156.45 M 144.51 161.32 C 142.14 169.05 141.17 177.11 139.79 185.07 C 145.55 177.58 150.04 169.05 152.46 159.89 C 153.36 156.66 153.07 153.25 152.28 150.03 C 147.83 152.14 145.97 156.95 144.51 161.32 M 220.79 169.20 C 221.57 166.73 222.14 164.21 222.59 161.67 C 220.96 163.85 220.46 166.53 220.79 169.20 M 199.55 186.75 C 205.50 181.84 211.76 174.44 209.50 166.16 C 203.44 171.20 200.57 179.14 199.55 186.75 M 216.32 174.12 C 214.44 181.60 208.91 187.35 203.20 192.19 C 200.91 194.43 197.47 196.14 196.82 199.53 C 196.20 204.63 195.83 209.77 195.36 214.89 C 195.35 217.39 194.61 220.38 196.37 222.48 C 199.38 224.56 202.68 221.83 205.01 219.96 C 210.48 214.87 214.35 208.32 217.80 201.75 C 219.33 199.03 220.07 194.99 223.79 194.56 C 225.70 189.97 227.95 185.54 230.20 181.11 C 228.35 180.57 226.50 180.01 224.66 179.45 C 222.12 186.49 219.77 193.65 216.23 200.28 C 215.60 201.36 215.00 202.54 213.95 203.29 C 210.81 203.69 209.57 199.93 210.58 197.52 C 212.86 190.36 216.75 183.82 218.82 176.58 C 217.98 175.76 217.15 174.95 216.32 174.12 M 7.71 242.28 C 11.22 234.49 9.53 225.69 9.66 217.43 C 6.44 225.13 4.69 234.26 7.71 242.28 M 163.62 245.47 C 163.83 240.58 163.83 235.67 163.63 230.78 C 161.74 235.45 161.47 240.83 163.62 245.47 M 94.61 249.43 C 93.20 254.80 92.48 260.92 95.28 265.98 C 98.20 258.29 98.90 249.90 98.35 241.74 C 96.25 243.79 95.47 246.72 94.61 249.43 Z" />
<path fill="#000000" opacity="1.00" d=" M 285.71 138.54 C 286.40 135.73 287.77 132.34 291.02 131.84 C 294.19 131.47 297.46 132.35 300.26 133.83 C 304.04 136.02 305.03 140.91 304.25 144.93 C 302.66 154.62 301.03 164.32 299.81 174.07 C 298.54 183.81 296.83 193.65 297.78 203.50 C 300.35 196.58 300.60 189.08 302.81 182.04 C 307.45 166.28 311.34 149.99 319.69 135.67 C 323.13 130.34 332.06 131.98 334.19 137.72 C 337.47 146.77 335.81 156.59 335.13 165.94 C 334.82 168.21 334.97 171.23 332.52 172.39 C 327.31 174.07 321.33 169.46 321.20 164.07 C 321.12 158.52 321.40 152.97 321.15 147.43 C 316.83 156.70 314.05 166.64 311.90 176.61 C 316.37 176.85 321.21 177.19 324.83 180.15 C 330.18 184.66 333.28 192.01 331.99 199.00 C 329.03 215.71 324.02 232.03 321.45 248.82 C 326.45 244.28 329.21 238.00 332.21 232.10 C 333.38 229.52 334.96 226.97 334.98 224.05 C 335.44 212.09 336.27 200.00 339.65 188.45 C 340.60 185.45 342.01 182.29 344.82 180.60 C 347.97 178.82 352.06 180.11 354.44 182.60 C 356.95 185.43 356.96 189.50 356.46 193.04 C 354.69 205.42 352.70 217.77 350.55 230.10 C 349.79 234.12 349.92 238.25 350.41 242.30 C 357.96 234.54 361.19 223.88 365.54 214.22 C 364.37 210.60 363.46 206.87 363.26 203.06 C 362.62 192.97 363.05 182.83 364.36 172.81 C 364.81 169.48 365.75 165.71 368.81 163.84 C 373.46 161.47 380.00 162.55 382.82 167.22 C 384.39 170.16 383.60 173.65 383.34 176.80 C 382.18 186.24 381.54 195.80 382.43 205.30 C 387.66 188.31 391.45 170.24 402.09 155.60 C 404.22 152.93 406.41 149.98 409.72 148.73 C 413.74 147.35 418.39 148.67 421.34 151.66 C 426.41 156.58 427.96 164.07 427.35 170.89 C 426.36 184.16 420.64 196.35 417.35 209.08 C 414.54 219.77 410.76 230.27 409.48 241.29 C 415.24 236.77 418.49 230.04 421.82 223.71 C 423.19 221.35 422.39 218.58 422.34 216.03 C 421.82 209.26 423.23 202.53 424.95 196.01 C 427.43 187.14 430.77 178.33 436.41 170.95 C 437.39 169.90 438.43 168.92 439.51 167.97 C 446.05 163.04 456.01 163.32 461.91 169.16 C 464.96 171.80 466.31 175.72 467.10 179.56 C 469.35 178.28 471.85 176.49 474.59 177.45 C 478.92 178.81 480.75 183.72 480.92 187.88 C 481.40 197.44 482.07 206.98 482.90 216.51 C 489.00 210.12 491.27 201.29 496.66 194.46 C 497.77 195.03 498.88 195.61 500.00 196.20 L 500.00 200.71 C 495.69 210.01 491.12 219.73 483.00 226.36 C 482.17 237.96 483.75 250.13 479.20 261.14 C 476.10 268.90 471.19 276.36 463.95 280.79 C 459.21 283.35 452.45 285.11 448.08 280.96 C 443.56 276.19 443.96 269.00 444.58 262.94 C 446.56 249.26 452.11 235.77 461.74 225.70 C 462.95 224.37 464.30 222.92 464.16 220.97 C 464.52 214.29 463.96 207.61 463.79 200.93 C 458.25 210.39 454.02 220.69 447.27 229.40 C 444.45 233.40 439.82 235.94 434.85 235.51 C 432.55 234.77 430.31 233.76 428.51 232.13 C 427.73 231.40 426.97 230.67 426.22 229.94 C 422.78 236.02 419.59 242.52 414.24 247.19 C 411.50 249.69 407.33 250.59 403.89 249.11 C 400.26 247.43 397.98 243.93 396.33 240.44 C 394.78 235.46 394.03 230.22 394.49 225.01 C 395.67 211.25 400.63 198.24 405.25 185.35 C 408.06 175.81 413.52 166.67 413.11 156.46 C 408.83 158.55 406.34 162.75 404.02 166.69 C 395.09 183.04 389.74 201.04 385.65 219.13 C 385.07 221.16 384.63 223.49 382.91 224.91 C 378.23 227.18 372.95 224.77 369.49 221.43 C 365.40 230.66 362.05 240.61 355.18 248.23 C 352.61 251.38 348.04 251.67 344.42 250.48 C 339.79 248.42 337.59 243.48 336.16 238.93 C 333.80 243.75 331.35 248.64 327.73 252.65 C 325.36 255.56 321.80 257.66 317.93 257.05 C 311.56 257.28 308.28 250.89 306.18 245.86 C 302.91 238.21 305.00 229.83 306.83 222.11 C 309.32 209.97 312.88 198.01 314.25 185.67 C 311.96 186.12 308.76 186.37 308.26 189.23 C 304.48 203.63 301.28 218.25 299.91 233.09 C 299.54 235.86 299.39 239.24 296.89 241.03 C 293.79 242.78 289.59 242.33 286.95 239.91 C 282.05 235.75 278.93 229.41 278.77 222.95 C 278.54 194.70 279.86 166.26 285.71 138.54 M 454.53 176.62 C 451.06 180.02 449.12 184.62 446.99 188.92 C 442.05 199.12 439.98 210.40 438.96 221.60 C 441.91 218.62 444.73 215.46 446.70 211.72 C 450.82 204.25 455.46 197.05 459.35 189.46 C 460.21 184.85 459.43 179.75 457.24 175.58 C 456.21 174.78 455.34 176.12 454.53 176.62 M 453.22 264.98 C 453.08 267.48 453.58 269.95 454.28 272.34 C 456.96 270.62 458.56 267.75 459.72 264.87 C 463.35 255.57 463.72 245.43 463.44 235.57 C 457.16 244.04 453.62 254.45 453.22 264.98 Z" />
<path fill="#000000" opacity="1.00" d=" M 350.10 152.32 C 353.08 151.32 357.15 152.35 358.49 155.43 C 360.28 159.49 359.32 164.07 358.31 168.21 C 357.84 170.29 356.45 172.63 353.95 172.30 C 351.01 171.84 347.51 170.63 346.44 167.54 C 345.30 163.82 346.45 159.91 347.47 156.30 C 347.99 154.81 348.48 152.97 350.10 152.32 Z" />
</g>
<g id="#272525ff">
<path fill="#272525" opacity="1.00" d=" M 170.53 411.56 C 174.05 408.69 179.37 408.64 183.29 410.71 C 185.79 411.91 186.16 414.86 186.88 417.23 C 184.67 417.23 182.46 417.23 180.26 417.18 C 179.21 416.21 178.42 414.86 177.03 414.36 C 175.00 414.54 173.97 417.04 175.61 418.42 C 178.46 420.13 182.00 420.35 184.72 422.32 C 187.74 424.60 187.68 429.47 185.12 432.07 C 183.72 433.67 181.58 434.22 179.69 434.99 L 180.00 435.00 L 177.99 435.00 C 172.80 435.84 168.12 432.10 167.65 427.02 C 169.83 427.00 172.02 427.02 174.20 427.06 C 175.12 428.07 175.76 429.47 177.06 430.07 C 179.04 430.12 179.97 428.34 180.87 426.90 C 177.73 424.83 173.99 424.03 170.70 422.26 C 166.97 419.98 167.26 414.11 170.53 411.56 Z" />
<path fill="#272525" opacity="1.00" d=" M 252.76 418.47 C 254.70 410.40 265.15 406.81 271.99 411.11 C 277.38 414.08 279.09 421.02 277.63 426.67 C 275.73 431.09 271.64 434.30 266.87 435.00 L 263.18 435.00 C 255.53 434.04 250.49 425.74 252.76 418.47 M 263.27 415.42 C 257.60 416.96 257.12 426.14 262.35 428.58 C 266.31 430.71 271.73 427.56 271.53 422.97 C 272.45 418.35 267.89 413.80 263.27 415.42 Z" />
<path fill="#272525" opacity="1.00" d=" M 209.26 409.75 C 211.33 409.74 213.41 409.75 215.49 409.75 C 215.50 413.08 215.50 416.41 215.50 419.74 C 218.58 419.74 221.66 419.75 224.75 419.75 C 224.75 416.42 224.75 413.08 224.76 409.76 C 226.83 409.75 228.91 409.75 231.00 409.75 C 231.01 418.08 231.00 426.41 231.00 434.75 C 228.91 434.74 226.83 434.74 224.75 434.74 C 224.75 431.34 224.75 427.93 224.77 424.53 C 221.67 424.50 218.56 424.50 215.46 424.50 C 215.48 428.00 215.58 431.50 215.76 435.00 L 215.28 435.00 C 213.39 434.02 211.23 434.54 209.22 434.66 C 209.28 426.35 209.22 418.05 209.26 409.75 Z" />
<path fill="#272525" opacity="1.00" d=" M 299.26 409.77 C 304.27 410.01 309.57 408.92 314.37 410.73 C 319.12 412.84 319.81 419.71 316.15 423.14 C 313.35 425.39 309.55 424.70 306.26 425.30 C 305.49 428.45 305.97 431.77 305.68 435.00 L 305.24 435.00 C 303.24 434.84 301.24 434.74 299.24 434.63 C 299.26 426.34 299.24 418.05 299.26 409.77 M 305.51 414.35 C 305.50 416.36 305.50 418.37 305.51 420.39 C 307.44 420.14 309.57 420.43 311.30 419.37 C 312.03 418.15 312.23 416.72 311.31 415.54 C 309.63 414.32 307.45 414.59 305.51 414.35 Z" />
</g>
</svg>
