<svg id="Layer_1" data-name="Layer 1" xmlns="http://www.w3.org/2000/svg" viewBox="0 0 292.97 223.15"><path d="M527.91,315c2.13-2.82,5.49-5,9.14-4.72,3.66,0,6.38,2.9,9.77,3.88,12,3.69,24,7.77,36.34,10.16,13.52,2.58,27.08,5,40.72,6.88,5.74.87,12,.52,17.14,3.56a10.31,10.31,0,0,1,5.2,11.21c-6.28,23.91-11.09,48.2-15,72.61-.59,3.59-2.18,7.3-5.35,9.32-2.62,1.73-5.87,1.79-8.89,1.71-10.88-.61-21.77.06-32.63.68-1,26-.39,52-3.7,77.87,2.8,1.58,6.23,3.32,6.74,6.88.51,3.92-3.08,6.88-6.48,7.91-6.48,1.94-13.25,2.55-20,3.21-24,2.2-48,4.92-72,6.48-16.7,1.05-33.77,1.65-50.13-2.47-7.76-2.07-15.88-5.7-19.9-13.09-2.47-4.34-3.49-9.32-4.15-14.22-2.17-24.27-2.13-48.65-3.22-73-.09-.52-.25-1.55-.34-2.07-7.08-.18-14.16.22-21.24.24-5.75-.1-12.15-1.41-15.87-6.2-4.39-5.68-4.24-13.26-5.6-20A135.94,135.94,0,0,0,357.91,364c-1.49-2.31-4.47-3.92-4.39-7-.1-3.56,3-6.06,5.68-7.83,12.17-6.95,25.6-11.22,38.78-15.82,15.51-5.08,30.88-10.59,45.95-16.84,5.4-2.19,11.12-4.26,17.06-3.8a9.87,9.87,0,0,1,8.07,6.34c1,2.64-.57,5.26-.7,7.91,3,5.28,8.58,8.31,13.9,10.8,5.62,2.34,11.69,4.91,17.91,3.65,7.5-1.58,14.71-5.77,18.89-12.32C522,324.43,524.53,319.43,527.91,315Zm14.22,15.18c-4.85,7.3-8.75,15.67-16.15,20.82-11.07,7.83-25.74,12.16-39,7.52-12.52-4.62-24.4-12.66-31-24.54-10.57,3.74-20.94,8-31.57,11.61-17.64,6.39-36.28,9.56-53.79,16.32A284.42,284.42,0,0,1,387,410.3c10.67,1.33,21.3-1.42,32-.86,4.25.23,8.66,3.07,9.68,7.37.86,3.15-1.59,6-1.1,9.15,2.73,25.66,2.24,51.56,5.07,77.22a9.92,9.92,0,0,0,7.21,8.92c14,4.15,28.8,3.94,43.2,2.86,26.43-1.57,52.74-4.58,79.08-7.19,3.67-28.12,3.86-56.53,4.36-84.84a9.72,9.72,0,0,1,4.5-7.7c3.8-2.74,8.64-3.05,13.14-3.58,9.93-.34,19.86-.88,29.79-.94,3.9-20.07,7.6-40.23,12.42-60.12-20.17-3.64-40.62-6.28-60.32-12.14C557.88,336.13,550,333.06,542.13,330.18Z" transform="translate(-353.52 -310.26)"/><path d="M506,385.8c5.29-1.58,10.89-4.33,16.47-2.43,5.9,1.75,9.73,8.84,7.24,14.63-2.28,5-5.68,9.37-9.19,13.54-10.2,11.74-21.74,22.26-31.91,34,10.55-3.88,20.4-9.83,31.55-11.94,5.21-.94,11.1,1.81,13.06,6.88a16.73,16.73,0,0,1-.67,11.51c-3.24,8.76-8.24,16.75-11.18,25.63-1.43,3.52-2.32,7.78-5.81,9.91s-8.38.65-10.32-2.85c-2.78-4.23-2.29-9.71-.71-14.28,2.06-5.44,4.94-10.51,7.11-15.9-10,3.89-19.39,9.15-29.48,12.78-5.24,1.82-10.6,4.15-16.28,3.56-6-.22-11-7-8.84-12.77,3.71-10.07,12-17.35,19.1-25,8.73-9.34,18-18.18,26.29-27.95-10,3-19.37,7.65-29.44,10.37-4.47,1.24-9.62,3-14,.61-3.77-2.23-3.53-8.49.46-10.35C475.28,399.9,490.13,391.6,506,385.8Z" transform="translate(-353.52 -310.26)"/></svg>